<?xml version="1.0" encoding="UTF-8" standalone="no"?>
<!-- Created with Inkscape (http://www.inkscape.org/) -->

<svg
   width="64pt"
   height="64pt"
   viewBox="0 0 22.577778 22.577778"
   version="1.1"
   id="svg831"
   inkscape:version="1.1.1 (3bf5ae0d25, 2021-09-20)"
   sodipodi:docname="1 - Trophy.svg"
   inkscape:export-filename="C:\Users\User\Desktop\DESEMBER\3 - Pencil and Sharpener.png"
   inkscape:export-xdpi="576"
   inkscape:export-ydpi="576"
   xmlns:inkscape="http://www.inkscape.org/namespaces/inkscape"
   xmlns:sodipodi="http://sodipodi.sourceforge.net/DTD/sodipodi-0.dtd"
   xmlns="http://www.w3.org/2000/svg"
   xmlns:svg="http://www.w3.org/2000/svg"
   xmlns:rdf="http://www.w3.org/1999/02/22-rdf-syntax-ns#"
   xmlns:cc="http://creativecommons.org/ns#"
   xmlns:dc="http://purl.org/dc/elements/1.1/">
  <defs
     id="defs825">
    <pattern
       id="EMFhbasepattern"
       patternUnits="userSpaceOnUse"
       width="6"
       height="6"
       x="0"
       y="0" />
    <pattern
       id="EMFhbasepattern-9"
       patternUnits="userSpaceOnUse"
       width="6"
       height="6"
       x="0"
       y="0" />
    <pattern
       id="EMFhbasepattern-0"
       patternUnits="userSpaceOnUse"
       width="6"
       height="6"
       x="0"
       y="0" />
    <pattern
       id="EMFhbasepattern-7"
       patternUnits="userSpaceOnUse"
       width="6"
       height="6"
       x="0"
       y="0" />
    <pattern
       id="EMFhbasepattern-2"
       patternUnits="userSpaceOnUse"
       width="6"
       height="6"
       x="0"
       y="0" />
    <pattern
       id="EMFhbasepattern-98"
       patternUnits="userSpaceOnUse"
       width="6"
       height="6"
       x="0"
       y="0" />
    <pattern
       id="EMFhbasepattern-6"
       patternUnits="userSpaceOnUse"
       width="6"
       height="6"
       x="0"
       y="0" />
    <pattern
       id="EMFhbasepattern-01"
       patternUnits="userSpaceOnUse"
       width="6"
       height="6"
       x="0"
       y="0" />
    <pattern
       id="EMFhbasepattern-07"
       patternUnits="userSpaceOnUse"
       width="6"
       height="6"
       x="0"
       y="0" />
    <pattern
       id="EMFhbasepattern-8"
       patternUnits="userSpaceOnUse"
       width="6"
       height="6"
       x="0"
       y="0" />
    <pattern
       id="EMFhbasepattern-4"
       patternUnits="userSpaceOnUse"
       width="6"
       height="6"
       x="0"
       y="0" />
    <pattern
       id="EMFhbasepattern-40"
       patternUnits="userSpaceOnUse"
       width="6"
       height="6"
       x="0"
       y="0" />
    <pattern
       id="EMFhbasepattern-08"
       patternUnits="userSpaceOnUse"
       width="6"
       height="6"
       x="0"
       y="0" />
    <pattern
       id="EMFhbasepattern-04"
       patternUnits="userSpaceOnUse"
       width="6"
       height="6"
       x="0"
       y="0" />
    <pattern
       id="EMFhbasepattern-014"
       patternUnits="userSpaceOnUse"
       width="6"
       height="6"
       x="0"
       y="0" />
    <pattern
       id="EMFhbasepattern-27"
       patternUnits="userSpaceOnUse"
       width="6"
       height="6"
       x="0"
       y="0" />
    <pattern
       id="EMFhbasepattern-09"
       patternUnits="userSpaceOnUse"
       width="6"
       height="6"
       x="0"
       y="0" />
    <pattern
       id="EMFhbasepattern-5"
       patternUnits="userSpaceOnUse"
       width="6"
       height="6"
       x="0"
       y="0" />
    <pattern
       id="EMFhbasepattern-018"
       patternUnits="userSpaceOnUse"
       width="6"
       height="6"
       x="0"
       y="0" />
  </defs>
  <sodipodi:namedview
     id="base"
     pagecolor="#ffffff"
     bordercolor="#666666"
     borderopacity="1.0"
     inkscape:pageopacity="0.0"
     inkscape:pageshadow="2"
     inkscape:zoom="4.6006733"
     inkscape:cx="42.71114"
     inkscape:cy="42.71114"
     inkscape:document-units="pt"
     inkscape:current-layer="layer1"
     showgrid="false"
     units="pt"
     inkscape:window-width="958"
     inkscape:window-height="1003"
     inkscape:window-x="952"
     inkscape:window-y="0"
     inkscape:window-maximized="0"
     inkscape:pagecheckerboard="true"
     inkscape:showpageshadow="false"
     inkscape:object-paths="false"
     inkscape:snap-intersection-paths="true"
     inkscape:snap-smooth-nodes="true"
     inkscape:snap-midpoints="true"
     showguides="true"
     inkscape:snap-bbox="true"
     inkscape:bbox-nodes="true"
     inkscape:snap-nodes="false"
     inkscape:snap-global="true">
    <inkscape:grid
       type="xygrid"
       id="grid1378" />
    <sodipodi:guide
       position="0.97013831,21.607643"
       orientation="78.000048,0"
       id="guide1380"
       inkscape:locked="false" />
    <sodipodi:guide
       position="0.97013831,0.97013129"
       orientation="0,78.000005"
       id="guide1382"
       inkscape:locked="false" />
    <sodipodi:guide
       position="21.607639,0.97013129"
       orientation="-78.000048,0"
       id="guide1384"
       inkscape:locked="false" />
    <sodipodi:guide
       position="21.607639,21.607643"
       orientation="0,-78.000005"
       id="guide1386"
       inkscape:locked="false" />
  </sodipodi:namedview>
  <metadata
     id="metadata828">
    <rdf:RDF>
      <cc:Work
         rdf:about="">
        <dc:format>image/svg+xml</dc:format>
        <dc:type
           rdf:resource="http://purl.org/dc/dcmitype/StillImage" />
      </cc:Work>
    </rdf:RDF>
  </metadata>
  <g
     inkscape:label="Icon"
     inkscape:groupmode="layer"
     id="layer1"
     transform="translate(0,-274.42223)"
     style="display:inline">
    <path
       id="rect1463"
       style="color:#000000;display:inline;fill:#000000;stroke-width:1;stroke-linecap:round;stroke-linejoin:round;-inkscape-stroke:none"
       d="m 4.630981,277.88884 c -0.9152333,0 -1.6630166,0.74844 -1.6630166,1.66367 v 2.83063 h 0.6657259 v -2.83063 c 0,-0.55545 0.4418489,-0.99794 0.9972907,-0.99794 h 13.315814 c 0.555442,0 0.997291,0.44249 0.997291,0.99794 v 10.65161 h 0.665726 v -10.65161 c 0,-0.91523 -0.747783,-1.66367 -1.663017,-1.66367 z m 0.9979364,1.33145 c -0.7313964,0 -1.3294979,0.6007 -1.3295012,1.3321 v 1.83075 h 4.3272185 c 0.9152294,0 1.6636613,0.74778 1.6636643,1.66302 v 0.33416 c 0,0.37422 -0.126265,0.71925 -0.3367634,0.99794 h 0.3367634 c 0.54757,0 0.997302,0.45232 0.997288,0.99989 v 0.49865 c 4e-6,0.49532 -0.368306,0.9101 -0.843857,0.98492 0.216747,0.28085 0.346512,0.63165 0.346512,1.0116 0.01425,0.22162 -0.0097,0.46553 -0.03315,0.66507 h 6.18917 c 0.731403,0 1.332104,-0.59809 1.332104,-1.32949 v -7.65651 c 0,-0.73139 -0.600701,-1.3321 -1.332104,-1.3321 z m 8.8897786,3.51132 c 0.130826,0.13014 0.130826,0.34185 0,0.47199 l -1.410113,1.41272 c -0.130133,0.13082 -0.341857,0.13082 -0.47199,0 -0.130392,-0.13006 -0.130392,-0.34129 0,-0.47135 l 1.412717,-1.41336 c 0.149162,-0.14923 0.339354,-0.11788 0.469386,0 z m -12.2171065,0.31726 v 0.8328 h 1.0076894 c 0.1838368,-7.3e-4 0.3334487,0.14774 0.3341643,0.33156 -3.329e-4,0.1841 -0.1500745,0.33294 -0.3341643,0.33222 H 2.3015895 v 0.83281 h 3.8285729 v -0.83281 H 4.6212281 c -0.1840898,7.3e-4 -0.3338049,-0.14812 -0.3341644,-0.33222 6.657e-4,-0.18382 0.1503275,-0.33228 0.3341644,-0.33156 h 3.8383256 c 0.1828118,7.4e-4 0.3308294,0.14875 0.3315616,0.33156 v 1.15073 c 0.4754742,-0.0775 0.8328061,-0.48447 0.8328099,-0.98364 v -0.33416 c -3.8e-6,-0.55546 -0.4418462,-0.99729 -0.9972905,-0.99729 z m 13.6298275,0.15473 c 0.129094,0.12983 0.129094,0.33955 0,0.46938 l -2.353447,2.35411 c -0.129836,0.12909 -0.339551,0.12909 -0.469387,0 -0.129095,-0.12985 -0.129095,-0.33957 0,-0.4694 l 2.354093,-2.35409 c 0.162614,-0.14414 0.32508,-0.13546 0.468741,0 z m -9.1355287,1.34185 v 2.19156 L 7.22627,286.30728 c 0.1297666,-0.12863 0.3389708,-0.12863 0.4687377,0 l 0.4303814,0.42973 v -2.19156 z m -3.4963591,1.49853 c -0.1877846,0 -0.331568,0.14638 -0.3315648,0.33417 v 0.49865 c 0,0.18777 0.1437903,0.3322 0.3315648,0.3322 h 2.8306332 v -1.16502 z m 5.4915861,0 v 1.16502 h 1.4991837 c 0.187779,0 0.331565,-0.14443 0.331562,-0.3322 v -0.49865 c 7e-6,-0.18779 -0.143777,-0.33417 -0.331562,-0.33417 z m -1.3301504,0.96934 -0.7638937,0.7639 c -0.062468,0.0628 -0.1474016,0.0981 -0.2359964,0.0981 H 2.8002349 v 0.83216 h 1.0102889 c 0.1828217,6.9e-4 0.3308525,0.14874 0.3315648,0.33156 6.657e-4,0.18383 -0.1477279,0.33344 -0.3315648,0.33415 H 2.8002349 v 0.83151 h 6.3243959 c 0.5554443,0 0.9998862,-0.44183 0.9998862,-0.99728 v -0.33417 c 0,-0.55545 -0.4444419,-0.99793 -0.9998862,-0.99793 h -0.663775 c -0.088366,-1.9e-4 -0.1730393,-0.0355 -0.2353474,-0.0981 z m -2.3404424,1.69422 h 1.8398467 c 0.1838368,-7.4e-4 0.3334487,0.14773 0.3341643,0.33157 6.658e-4,0.18484 -0.1493123,0.33488 -0.3341643,0.33415 H 5.1205225 c -0.1840898,-3.6e-4 -0.3329328,-0.15007 -0.3322138,-0.33415 6.656e-4,-0.18309 0.1491391,-0.33121 0.3322138,-0.33157 z m -4.15038466,2.1623 v 0.66573 c 0,1.09907 0.89875986,1.99783 1.99782656,1.99783 H 19.609812 c 1.09907,0 1.997827,-0.89876 1.997827,-1.99783 v -0.66573 h -7.380846 c 0.03777,0.1048 0.05851,0.21728 0.05851,0.33417 0,0.54756 -0.452348,0.99793 -0.999887,0.99793 H 9.292361 c -0.5475387,0 -0.9998859,-0.45037 -0.9998859,-0.99793 0,-0.11687 0.020733,-0.22941 0.058513,-0.33417 z m 8.32222186,0 c -0.187751,0 -0.3341608,0.14637 -0.3341608,0.33417 0,0.1878 0.1463997,0.33156 0.3341608,0.33156 h 3.9930573 c 0.187761,0 0.334161,-0.14376 0.334161,-0.33156 0,-0.18782 -0.1464,-0.33417 -0.334161,-0.33417 z m -1.9978262,0.66508 c 0.1838367,7.4e-4 0.3322808,0.15032 0.3315612,0.33417 -3.322e-4,0.18307 -0.1484869,0.3315 -0.3315612,0.33221 -0.1840898,7.3e-4 -0.3338049,-0.14812 -0.3341643,-0.33221 -6.658e-4,-0.18485 0.1493122,-0.33489 0.3341643,-0.33417 z m 7.9887105,0 c 0.183836,7.4e-4 0.33228,0.15032 0.33156,0.33417 -3.32e-4,0.18307 -0.148487,0.3315 -0.33156,0.33221 -0.18409,7.3e-4 -0.333806,-0.14812 -0.334165,-0.33221 -6.66e-4,-0.18485 0.149312,-0.33489 0.334165,-0.33417 z"
       sodipodi:nodetypes="ssccssssccssssscssscscscccsssssccccccccccccccccccccccssscccccccccccccccssssccsccsscscccccccscccsssscccccsccscccsscccssssccsssssssscscsscscs" />
  </g>
</svg>
